<svg xmlns="http://www.w3.org/2000/svg" viewBox="0 0 64 64" fill="none">
  <defs>
    <radialGradient id="earthGlow" cx="50%" cy="50%" r="50%">
      <stop offset="0%" stop-color="#e0f2fe" stop-opacity="0.98" />
      <stop offset="100%" stop-color="#38bdf8" stop-opacity="0.12" />
    </radialGradient>
  </defs>
  <circle cx="32" cy="32" r="30" fill="#0a1326" fill-opacity="0.6" stroke="#60a5fa" stroke-opacity="0.35" stroke-width="1.2" />
  <circle cx="32" cy="32" r="24" stroke="#38bdf8" stroke-opacity="0.55" stroke-width="1.5" stroke-dasharray="5 5" />
  <circle cx="32" cy="32" r="17" stroke="#22d3ee" stroke-opacity="0.3" stroke-width="1.2" />
  <path d="M18 30c3-8.5 9-13 16-13" stroke="#7dd3fc" stroke-opacity="0.55" stroke-width="1.4" stroke-linecap="round" />
  <path d="M24 46c3.5 3 7.5 5 12.5 5" stroke="#38bdf8" stroke-opacity="0.45" stroke-width="1.3" stroke-linecap="round" />
  <line x1="32" y1="9" x2="32" y2="15" stroke="#7dd3fc" stroke-width="1.2" stroke-opacity="0.6" />
  <line x1="9" y1="32" x2="15" y2="32" stroke="#7dd3fc" stroke-width="1.2" stroke-opacity="0.6" />
  <line x1="32" y1="49" x2="32" y2="55" stroke="#7dd3fc" stroke-width="1.2" stroke-opacity="0.6" />
  <line x1="49" y1="32" x2="55" y2="32" stroke="#7dd3fc" stroke-width="1.2" stroke-opacity="0.6" />
  <circle cx="32" cy="32" r="8.5" fill="url(#earthGlow)" stroke="#38bdf8" stroke-width="1.2" />
  <path d="M28 32c2-2.2 3.6-3 6-3 2.2 0 3.5 0.7 4.8 2.2" stroke="#10b981" stroke-width="1.2" stroke-linecap="round" />
  <circle cx="46.5" cy="23.5" r="2.6" fill="#38bdf8" fill-opacity="0.72" />
  <circle cx="17.5" cy="40.5" r="2" fill="#bae6fd" fill-opacity="0.6" />
</svg>
