<svg xmlns="http://www.w3.org/2000/svg" viewBox="0 0 64 64" fill="none">
  <defs>
    <radialGradient id="jupiterGlow" cx="50%" cy="50%" r="50%">
      <stop offset="0%" stop-color="#f3e8ff" stop-opacity="0.95" />
      <stop offset="100%" stop-color="#a855f7" stop-opacity="0.12" />
    </radialGradient>
  </defs>
  <circle cx="32" cy="32" r="30" fill="#0c0f24" fill-opacity="0.62" stroke="#c084fc" stroke-opacity="0.38" stroke-width="1.2" />
  <circle cx="32" cy="32" r="24.5" stroke="#a855f7" stroke-opacity="0.6" stroke-width="1.6" stroke-dasharray="6 4" />
  <circle cx="32" cy="32" r="18" stroke="#8b5cf6" stroke-opacity="0.25" stroke-width="1.2" />
  <path d="M14 32c0-9.5 7.5-17 17-17" stroke="#c084fc" stroke-opacity="0.55" stroke-width="1.4" stroke-linecap="round" />
  <path d="M23 47.5c3.8 2.5 8.6 4 13.5 4" stroke="#a855f7" stroke-opacity="0.45" stroke-width="1.3" stroke-linecap="round" />
  <line x1="32" y1="8" x2="32" y2="14" stroke="#c084fc" stroke-width="1.2" stroke-opacity="0.65" />
  <line x1="8" y1="32" x2="14" y2="32" stroke="#c084fc" stroke-width="1.2" stroke-opacity="0.65" />
  <line x1="32" y1="50" x2="32" y2="56" stroke="#c084fc" stroke-width="1.2" stroke-opacity="0.65" />
  <line x1="50" y1="32" x2="56" y2="32" stroke="#c084fc" stroke-width="1.2" stroke-opacity="0.65" />
  <circle cx="32" cy="32" r="10" fill="url(#jupiterGlow)" stroke="#a855f7" stroke-width="1.2" />
  <path d="M24 32c2.2-3.2 6.8-5.6 12-4" stroke="#d8b4fe" stroke-width="1.1" stroke-linecap="round" />
  <circle cx="48" cy="22" r="2.6" fill="#c4b5fd" fill-opacity="0.72" />
  <circle cx="16.5" cy="41.5" r="2.1" fill="#ede9fe" fill-opacity="0.65" />
</svg>
