<svg xmlns="http://www.w3.org/2000/svg" viewBox="0 0 64 64" fill="none">
  <defs>
    <radialGradient id="marsGlow" cx="50%" cy="50%" r="50%">
      <stop offset="0%" stop-color="#ffe2d5" stop-opacity="0.92" />
      <stop offset="100%" stop-color="#ef4444" stop-opacity="0.1" />
    </radialGradient>
  </defs>
  <circle cx="32" cy="32" r="30" fill="#120d1c" fill-opacity="0.65" stroke="#fb7185" stroke-opacity="0.4" stroke-width="1.2" />
  <circle cx="32" cy="32" r="24" stroke="#ef4444" stroke-opacity="0.55" stroke-width="1.5" stroke-dasharray="4 5" />
  <circle cx="32" cy="32" r="17" stroke="#f97316" stroke-opacity="0.25" stroke-width="1.1" />
  <path d="M16.5 27.5c3.8-5.8 10.8-9.5 16.5-9.5" stroke="#fb7185" stroke-opacity="0.55" stroke-width="1.4" stroke-linecap="round" />
  <path d="M22 47c3 2.4 7 4 12 4" stroke="#f97316" stroke-opacity="0.45" stroke-width="1.3" stroke-linecap="round" />
  <line x1="32" y1="8.5" x2="32" y2="14.5" stroke="#fb7185" stroke-width="1.1" stroke-opacity="0.65" />
  <line x1="9.5" y1="32" x2="15.5" y2="32" stroke="#fb7185" stroke-width="1.1" stroke-opacity="0.65" />
  <line x1="32" y1="49.5" x2="32" y2="55.5" stroke="#fb7185" stroke-width="1.1" stroke-opacity="0.65" />
  <line x1="48.5" y1="32" x2="54.5" y2="32" stroke="#fb7185" stroke-width="1.1" stroke-opacity="0.65" />
  <circle cx="32" cy="32" r="8" fill="url(#marsGlow)" stroke="#ef4444" stroke-width="1.2" />
  <path d="M28 29.5c2.2-1.4 4.8-1.2 6.6 0 1.4 1 2.1 2.8 2.2 4.3" stroke="#fb923c" stroke-width="1.2" stroke-linecap="round" />
  <circle cx="46" cy="20.5" r="2.4" fill="#fb7185" fill-opacity="0.7" />
  <circle cx="18" cy="42.5" r="1.9" fill="#fed7aa" fill-opacity="0.6" />
</svg>
