<svg xmlns="http://www.w3.org/2000/svg" viewBox="0 0 64 64" fill="none">
  <defs>
    <radialGradient id="saturnGlow" cx="50%" cy="50%" r="50%">
      <stop offset="0%" stop-color="#fff7ed" stop-opacity="0.9" />
      <stop offset="100%" stop-color="#f4b86a" stop-opacity="0.12" />
    </radialGradient>
  </defs>
  <circle cx="32" cy="32" r="30" fill="#100f1f" fill-opacity="0.62" stroke="#fcd19c" stroke-opacity="0.36" stroke-width="1.2" />
  <circle cx="32" cy="32" r="24" stroke="#f59e0b" stroke-opacity="0.55" stroke-width="1.5" stroke-dasharray="6 4" />
  <circle cx="32" cy="32" r="17.5" stroke="#f4b86a" stroke-opacity="0.25" stroke-width="1.1" />
  <ellipse cx="32" cy="32" rx="18" ry="8" stroke="#fde68a" stroke-opacity="0.65" stroke-width="1.4" transform="rotate(-18 32 32)" />
  <path d="M17 27c3.8-5.8 9.6-9 15-9" stroke="#fcd19c" stroke-opacity="0.5" stroke-width="1.3" stroke-linecap="round" />
  <path d="M22.5 46.5c3.6 2.6 7.8 4 12.5 4" stroke="#f59e0b" stroke-opacity="0.45" stroke-width="1.2" stroke-linecap="round" />
  <line x1="32" y1="9" x2="32" y2="15" stroke="#fcd34d" stroke-width="1.1" stroke-opacity="0.65" />
  <line x1="9" y1="32" x2="15" y2="32" stroke="#fcd34d" stroke-width="1.1" stroke-opacity="0.65" />
  <line x1="32" y1="49" x2="32" y2="55" stroke="#fcd34d" stroke-width="1.1" stroke-opacity="0.65" />
  <line x1="49" y1="32" x2="55" y2="32" stroke="#fcd34d" stroke-width="1.1" stroke-opacity="0.65" />
  <circle cx="32" cy="32" r="9.2" fill="url(#saturnGlow)" stroke="#f59e0b" stroke-width="1.1" />
  <circle cx="46" cy="22.5" r="2.4" fill="#fde68a" fill-opacity="0.68" />
  <circle cx="17.5" cy="41" r="2" fill="#fef3c7" fill-opacity="0.55" />
</svg>
