<svg xmlns="http://www.w3.org/2000/svg" viewBox="0 0 64 64" fill="none">
  <defs>
    <radialGradient id="uranusGlow" cx="50%" cy="50%" r="50%">
      <stop offset="0%" stop-color="#e0fbff" stop-opacity="0.94" />
      <stop offset="100%" stop-color="#22d3ee" stop-opacity="0.12" />
    </radialGradient>
  </defs>
  <circle cx="32" cy="32" r="30" fill="#0b111f" fill-opacity="0.62" stroke="#67e8f9" stroke-opacity="0.38" stroke-width="1.2" />
  <circle cx="32" cy="32" r="24.5" stroke="#22d3ee" stroke-opacity="0.6" stroke-width="1.5" stroke-dasharray="6 5" />
  <circle cx="32" cy="32" r="18" stroke="#06b6d4" stroke-opacity="0.24" stroke-width="1.2" />
  <ellipse cx="32" cy="32" rx="17" ry="7" stroke="#67e8f9" stroke-opacity="0.55" stroke-width="1.2" transform="rotate(18 32 32)" />
  <path d="M16 28.5c3.5-6.6 11-10.5 17-10.5" stroke="#7dd3fc" stroke-opacity="0.5" stroke-width="1.3" stroke-linecap="round" />
  <path d="M24 47c3.4 2.6 8.2 4.5 13.2 4.5" stroke="#22d3ee" stroke-opacity="0.45" stroke-width="1.2" stroke-linecap="round" />
  <line x1="32" y1="8.5" x2="32" y2="14.5" stroke="#67e8f9" stroke-width="1.1" stroke-opacity="0.65" />
  <line x1="8.5" y1="32" x2="14.5" y2="32" stroke="#67e8f9" stroke-width="1.1" stroke-opacity="0.65" />
  <line x1="32" y1="49.5" x2="32" y2="55.5" stroke="#67e8f9" stroke-width="1.1" stroke-opacity="0.65" />
  <line x1="49.5" y1="32" x2="55.5" y2="32" stroke="#67e8f9" stroke-width="1.1" stroke-opacity="0.65" />
  <circle cx="32" cy="32" r="9.5" fill="url(#uranusGlow)" stroke="#22d3ee" stroke-width="1.1" />
  <circle cx="46.5" cy="23" r="2.5" fill="#7dd3fc" fill-opacity="0.72" />
  <circle cx="17" cy="41.5" r="2.1" fill="#cffafe" fill-opacity="0.6" />
</svg>
